:SAMPLES-PER-SECOND 30
:FULLY-SPECIFIED
:DEGREES
31
root  80.6773 38.9887 -0.714955 -175.82 -81.7024 170.289
RightUpLeg  -20.0589 -18.6335 -1.13932
RightLeg  19.9833 -3.8957 -1.77512
RightFoot  -1.69745 -0.637344 7.41631
RightToes  0.00048216 0.542163 -0.142577
Spine  12.8754 -1.0411 -4.44624
Spine1  11.6862 -2.93782 3.79727
HEad  -5.79101 10.0273 -4.3213
LeftShoulder1  6.35867 -10.3373 -39.6987
LeftArm  -6.00071 -12.1382 -38.3819
LeftForeArm  39.3243 -7.94906 -6.62441
LeftHand  -0.25398 0.0180481 5.50724
RightShoulder  4.15177 7.30976 32.4513
RightArm  -15.0571 -19.3019 46.5763
RightForeArm  24.5332 11.9992 4.25309
RightHand  -0.674885 1.11349 -12.1279
LeftUpLeg  11.5376 8.41723 1.38274
LeftLeg  12.729 17.4455 -0.767871
LeftFoot  -18.8758 -0.0969196 -3.18574
LeftToes  1.0625e-005 4.65855e-005 -8.18498e-006
32
root  79.7952 38.8422 -0.89381 -175.703 -81.4619 170.461
RightUpLeg  -20.2109 -18.6305 -0.443462
RightLeg  18.5128 -2.66946 -1.19966
RightFoot  -2.28231 -0.634304 7.78507
RightToes  0.00048216 0.542163 -0.142577
Spine  12.9918 -1.26256 -4.7257
Spine1  12.1906 -3.46564 4.54235
HEad  -7.77503 10.4974 -5.74937
LeftShoulder1  6.47107 -10.4242 -40.1913
LeftArm  -1.07451 -12.9109 -40.8034
LeftForeArm  39.9056 -11.9014 -6.76222
LeftHand  -0.25398 0.0180481 5.50724
RightShoulder  4.30305 7.58823 32.8505
RightArm  -14.2005 -20.374 47.6797
RightForeArm  26.9236 12.7858 4.24666
RightHand  -0.445788 -0.200633 -9.99864
LeftUpLeg  13.0127 8.22095 1.64119
LeftLeg  12.2415 17.5767 -1.03989
LeftFoot  -19.7423 -0.174958 -3.9831
LeftToes  1.0625e-005 4.65855e-005 -8.18498e-006
33
root  78.8186 38.7229 -1.096 -178.25 -81.4722 173.363
RightUpLeg  -20.0375 -17.7671 0.337118
RightLeg  18.6112 -3.08668 -1.36838
RightFoot  -2.26012 -0.468775 5.7321
RightToes  0.00048216 0.542163 -0.142577
Spine  12.7716 -1.59465 -3.98828
Spine1  13.0068 -3.89062 4.85421
HEad  -9.96768 11.3513 -6.81033
LeftShoulder1  6.61879 -10.6155 -40.5859
LeftArm  3.77601 -13.2112 -43.0753
LeftForeArm  36.9194 -15.8312 -5.71772
LeftHand  -0.25398 0.0180481 5.50724
RightShoulder  4.45934 7.83897 33.371
RightArm  -14.0715 -21.0241 47.56
RightForeArm  27.2176 13.2922 4.19003
RightHand  -0.376055 -0.710415 -9.25572
LeftUpLeg  14.593 8.37955 2.47959
LeftLeg  11.7364 16.9544 -1.15096
LeftFoot  -20.2589 -0.298249 -5.38645
LeftToes  1.0625e-005 4.65855e-005 -8.18498e-006
34
root  77.7487 38.6434 -1.32379 175.986 -81.8587 179.782
RightUpLeg  -20.0028 -17.2816 1.63436
RightLeg  19.8535 -4.21683 -1.89985
RightFoot  -1.69187 -0.119261 1.29135
RightToes  0.00048216 0.542163 -0.142577
Spine  12.4691 -2.11118 -2.32974
Spine1  13.2506 -4.32435 4.92663
HEad  -11.0153 11.5923 -7.45301
LeftShoulder1  6.75295 -10.7858 -40.9443
LeftArm  6.04457 -12.8529 -44.9744
LeftForeArm  34.6389 -18.884 -4.43729
LeftHand  -0.25398 0.0180481 5.50724
RightShoulder  4.49875 7.84027 33.7114
RightArm  -15.039 -21.1613 46.6066
RightForeArm  25.9854 12.7159 4.1363
RightHand  -0.414465 -0.443138 -9.67791
LeftUpLeg  15.6565 9.06615 3.98083
LeftLeg  11.9106 15.7812 -0.657618
LeftFoot  -20.2833 -0.36249 -6.18707
LeftToes  1.0625e-005 4.65855e-005 -8.18498e-006
35
root  76.6149 38.5572 -1.58459 168.442 -82.0414 -172.051
RightUpLeg  -20.1606 -16.7741 2.98607
RightLeg  22.2758 -5.08792 -2.50505
RightFoot  -1.67591 0.222089 -2.79924
RightToes  0.00048216 0.542163 -0.142577
Spine  12.6346 -2.55368 -0.347482
Spine1  12.7295 -4.57568 4.93183
HEad  -11.3773 11.1393 -7.57162
LeftShoulder1  6.8483 -10.8517 -41.3642
LeftArm  6.40619 -11.9516 -46.3106
LeftForeArm  33.9527 -21.1947 -3.59936
LeftHand  -0.25398 0.0180481 5.50724
RightShoulder  4.44794 7.65088 33.9272
RightArm  -16.6062 -20.3725 44.9615
RightForeArm  24.3116 10.9186 3.96461
RightHand  -0.446936 -0.397748 -10.3655
LeftUpLeg  16.2061 10.9523 6.02505
LeftLeg  13.5054 13.137 0.628545
LeftFoot  -20.2902 -0.483349 -7.6774
LeftToes  1.0625e-005 4.65855e-005 -8.18498e-006
36
root  75.4969 38.433 -1.88731 162.404 -81.8001 -165.678
RightUpLeg  -20.1644 -15.8591 3.88307
RightLeg  25.3271 -5.66866 -3.14305
RightFoot  -3.14957 0.291407 -4.33064
RightToes  0.00048216 0.542163 -0.142577
Spine  13.3313 -2.84351 1.36787
Spine1  12.2561 -4.58195 4.98344
HEad  -12.2187 11.2944 -7.64809
LeftShoulder1  6.89177 -10.8275 -41.722
LeftArm  6.08869 -10.977 -46.8793
LeftForeArm  33.8759 -23.0467 -3.30097
LeftHand  -0.25398 0.0180481 5.50724
RightShoulder  4.49717 7.62995 34.4356
RightArm  -17.6598 -18.0525 42.66
RightForeArm  22.4818 8.17864 3.56582
RightHand  -0.441446 -0.855478 -11.198
LeftUpLeg  16.0588 13.4027 8.03872
LeftLeg  16.985 9.22877 2.52034
LeftFoot  -20.0398 -0.793911 -12.0639
LeftToes  1.0625e-005 4.65855e-005 -8.18498e-006
37
root  74.4495 38.3454 -2.22292 158.652 -81.5378 -161.617
RightUpLeg  -19.653 -15.3123 4.44995
RightLeg  27.4977 -5.99372 -3.60749
RightFoot  -5.46853 0.159987 -3.81047
RightToes  0.00048216 0.542163 -0.142577
Spine  13.9395 -3.14165 2.9376
Spine1  12.4786 -4.43015 4.83687
HEad  -13.3049 11.7558 -7.18747
LeftShoulder1  6.93537 -10.9009 -41.7765
LeftArm  5.41468 -10.2733 -46.6468
LeftForeArm  34.0718 -24.2152 -3.38606
LeftHand  -0.25398 0.0180481 5.50724
RightShoulder  4.68705 7.91575 35.081
RightArm  -17.9818 -14.4244 40.4048
RightForeArm  20.8261 5.22304 3.08284
RightHand  -0.464351 -1.03304 -12.2235
LeftUpLeg  13.5939 12.0952 8.57336
LeftLeg  23.9607 9.2752 4.99319
LeftFoot  -17.1972 -0.752781 -16.9714
LeftToes  1.0625e-005 4.65855e-005 -8.18498e-006
